<?xml version="1.0" encoding="UTF-8"?>
<svg version="1.1" xmlns="http://www.w3.org/2000/svg" width="238" height="232">
<path d="M0 0 C0.91146001 0.00291284 1.82292002 0.00582568 2.76200002 0.00882679 C4.20273387 0.00754515 4.20273387 0.00754515 5.67257345 0.00623763 C8.9170767 0.0045799 12.16152918 0.01010896 15.40602773 0.01555592 C17.72141672 0.01583775 20.03680579 0.01568013 22.35219473 0.01511341 C28.65979335 0.01482529 34.96737314 0.02072435 41.27496737 0.02768737 C47.85868718 0.03391852 54.44240736 0.03452452 61.02612966 0.03571278 C72.08359252 0.03830589 83.14104874 0.04472809 94.1985082 0.05364186 C105.5897839 0.06281519 116.9810577 0.06988495 128.37233633 0.07414967 C129.43560415 0.07455166 129.43560415 0.07455166 130.52035213 0.07496178 C136.68589379 0.0772745 142.85143552 0.07942736 149.01697725 0.08156449 C175.58473694 0.09098099 202.15247824 0.11089943 228.72023672 0.12908131 C228.72023672 74.37908131 228.72023672 148.62908131 228.72023672 225.12908131 C151.17023672 225.12908131 73.62023672 225.12908131 -6.27976328 225.12908131 C-6.95078633 221.77396607 -7.4048017 219.37365778 -7.40560442 216.09643131 C-7.40821217 215.32422914 -7.41081992 214.55202697 -7.41350669 213.75642473 C-7.41127596 212.91955338 -7.40904524 212.08268203 -7.40674692 211.22045094 C-7.40830691 210.32258641 -7.40986691 209.42472189 -7.41147417 208.49964935 C-7.41546293 205.49101883 -7.41230276 202.48243877 -7.40915781 199.47380787 C-7.41051275 197.31708455 -7.41229321 195.16036146 -7.41446787 193.0036388 C-7.41903003 187.14661076 -7.41725791 181.28960031 -7.41408879 175.43257195 C-7.41156023 169.3111239 -7.41390399 163.18967737 -7.41547495 157.06822926 C-7.41729464 146.7921238 -7.41489501 136.51602552 -7.41013438 126.23992115 C-7.40468636 114.34229105 -7.40645914 102.44467808 -7.41196078 90.54704839 C-7.41649072 80.34404253 -7.41714322 70.14104185 -7.41452211 59.93803531 C-7.41295942 53.8386514 -7.41276547 47.73927556 -7.4160586 41.63989216 C-7.41893578 35.9107993 -7.41696447 30.18172865 -7.41116434 24.45263821 C-7.40983617 22.34382943 -7.41023183 20.2350188 -7.41242701 18.12621075 C-7.41513611 15.26070717 -7.41176041 12.395276 -7.40674692 9.52977711 C-7.40897765 8.68398287 -7.41120837 7.83818864 -7.41350669 6.96676427 C-7.38943946 -0.06371628 -6.99043322 0.01696134 0 0 Z M34.31203359 44.82121998 C14.21555845 68.00972929 7.72872353 96.09217842 9.72023672 126.12908131 C11.19813095 137.29423279 14.33626901 148.21548807 19.72023672 158.12908131 C20.17140859 159.03529225 20.62258047 159.94150318 21.08742422 160.87517506 C24.56158032 167.64508465 28.85396992 173.30823765 33.72023672 179.12908131 C34.25261953 179.88318287 34.78500234 180.63728443 35.33351797 181.41423756 C35.79113516 181.980136 36.24875234 182.54603443 36.72023672 183.12908131 C37.38023672 183.12908131 38.04023672 183.12908131 38.72023672 183.12908131 C38.72023672 183.78908131 38.72023672 184.44908131 38.72023672 185.12908131 C39.38023672 185.12908131 40.04023672 185.12908131 40.72023672 185.12908131 C40.72023672 185.78908131 40.72023672 186.44908131 40.72023672 187.12908131 C42.55748969 188.77101171 44.38585692 190.26920393 46.34523672 191.75408131 C46.92918203 192.19776051 47.51312734 192.64143971 48.11476797 193.09856373 C58.17481169 200.58058719 68.81890017 206.10070098 80.72023672 210.12908131 C81.62902578 210.43716725 82.53781484 210.74525318 83.47414297 211.06267506 C108.62535806 219.08802461 136.8807469 214.09056335 159.94313711 202.34221607 C175.00203655 194.33843405 188.92658545 181.84194578 197.72023672 167.12908131 C198.38668203 166.02177662 199.05312734 164.91447193 199.73976797 163.77361256 C213.12804968 140.61030208 216.51133717 112.38283202 209.98195547 86.50017506 C203.44420599 62.93628021 188.22482181 39.32745206 166.72414297 26.74626881 C165.73285391 26.21259693 164.74156484 25.67892506 163.72023672 25.12908131 C163.1180834 24.80069264 162.51593008 24.47230397 161.89552969 24.13396412 C153.12380776 19.39308328 144.4521065 15.50881781 134.72023672 13.12908131 C133.85269766 12.90478443 132.98515859 12.68048756 132.09133047 12.44939381 C96.45306783 4.87561456 58.50230834 18.02564936 34.31203359 44.82121998 Z " fill="#BDFB72" transform="translate(7.279763281345367,3.8709186911582947)"/>
<path d="M0 0 C0.33 0 0.66 0 1 0 C1.33 73.92 1.66 147.84 2 224 C-75.55 224 -153.1 224 -233 224 C-233.92020192 219.39899039 -234.14284933 215.21701668 -234.13371277 210.56712341 C-234.13597833 209.72037821 -234.13824388 208.87363301 -234.14057809 208.00122887 C-234.14690562 205.16543752 -234.14608954 202.32969411 -234.14526367 199.49389648 C-234.14825586 197.46026548 -234.15165853 195.42663505 -234.15544128 193.39300537 C-234.16427743 187.87047869 -234.16661918 182.34796751 -234.16725707 176.82543445 C-234.16820637 172.21776035 -234.17188473 167.61008986 -234.17542917 163.00241715 C-234.18357156 152.13580553 -234.18601352 141.2692022 -234.18530273 130.40258789 C-234.18470136 119.18323974 -234.19526567 107.96393958 -234.2110464 96.74460357 C-234.22410651 87.11734142 -234.22948731 77.49009498 -234.22884732 67.86282402 C-234.22859197 62.1104155 -234.23146393 56.35804966 -234.24202538 50.60564995 C-234.25168113 45.19909389 -234.25180293 39.79262157 -234.24450874 34.38606262 C-234.24345989 32.39945415 -234.2458435 30.41284053 -234.2518692 28.42624092 C-234.25954944 25.71935871 -234.25497081 23.01276855 -234.24723816 20.30589294 C-234.25238172 19.51552861 -234.25752529 18.72516428 -234.26282471 17.91084951 C-234.23885731 14.12747132 -234.13233255 11.20729255 -232 8 C-231.19426176 20.97217785 -230.85888462 33.87840536 -230.88647461 46.8737793 C-230.8867576 48.77803547 -230.88659656 50.68229174 -230.8860321 52.58654785 C-230.88574851 57.69064168 -230.89157361 62.79471137 -230.89860606 67.89879966 C-230.9049133 73.25722359 -230.90544917 78.61564825 -230.90663147 83.97407532 C-230.90972326 94.09178968 -230.91790726 104.20949306 -230.92798096 114.32720262 C-230.93920941 125.85825669 -230.94466942 137.38931132 -230.94967639 148.92036951 C-230.96009198 172.61358572 -230.97764919 196.30679224 -231 220 C-229.68 220 -228.36 220 -227 220 C-227 220.66 -227 221.32 -227 222 C-152.09 222 -77.18 222 0 222 C0 148.74 0 75.48 0 0 Z " fill="#CAF983" transform="translate(234,5)"/>
<path d="M0 0 C4.3782512 -0.02469081 8.75646567 -0.04285557 13.13476562 -0.05493164 C14.62468166 -0.05996514 16.11459274 -0.06679242 17.60449219 -0.07543945 C19.74415304 -0.08754805 21.88374868 -0.09323807 24.0234375 -0.09765625 C25.31169434 -0.10289307 26.59995117 -0.10812988 27.92724609 -0.11352539 C31 0 31 0 33 1 C34.70363822 1.22622081 36.41328701 1.40888473 38.125 1.5625 C39.03507812 1.64628906 39.94515625 1.73007813 40.8828125 1.81640625 C41.58148438 1.87699219 42.28015625 1.93757812 43 2 C43 2.66 43 3.32 43 4 C45.31 4 47.62 4 50 4 C50 4.66 50 5.32 50 6 C52.64 6 55.28 6 58 6 C58.495 7.98 58.495 7.98 59 10 C60.3303125 9.8453125 60.3303125 9.8453125 61.6875 9.6875 C66.03807215 10.09793133 67.09819988 11.8691104 70 15 C72.11280345 15.63292383 72.11280345 15.63292383 74 16 C74.99 17.485 74.99 17.485 76 19 C76.86625 19.515625 77.7325 20.03125 78.625 20.5625 C79.40875 21.036875 80.1925 21.51125 81 22 C81 22.66 81 23.32 81 24 C82.65 24 84.3 24 86 24 C86 25.32 86 26.64 86 28 C87.32 28 88.64 28 90 28 C90 28.66 90 29.32 90 30 C90.66 30 91.32 30 92 30 C92.99 32.97 92.99 32.97 94 36 C94.66 36 95.32 36 96 36 C96.94401042 37.79036458 97.88802083 39.58072917 98.83203125 41.37109375 C99.99019799 43.32267987 99.99019799 43.32267987 103 44 C104.28125 46.546875 104.28125 46.546875 105.5 49.75 C107.03855277 53.75418222 108.61408081 57.42112122 111 61 C111.33 61 111.66 61 112 61 C112 63.31 112 65.62 112 68 C112.66 68 113.32 68 114 68 C114.99 71.96 115.98 75.92 117 80 C117.33 80 117.66 80 118 80 C119.59781155 92.06918364 120.25897692 103.82808499 120 116 C119.34 116 118.68 116 118 116 C118.01160156 116.71027344 118.02320313 117.42054688 118.03515625 118.15234375 C118.04417969 119.07144531 118.05320312 119.99054688 118.0625 120.9375 C118.07410156 121.85402344 118.08570313 122.77054687 118.09765625 123.71484375 C118 126 118 126 117 127 C116.76636119 128.84891946 116.58696365 130.70488031 116.4375 132.5625 C116.31181641 134.08037109 116.31181641 134.08037109 116.18359375 135.62890625 C116.12300781 136.41136719 116.06242187 137.19382813 116 138 C115.34 138 114.68 138 114 138 C113.01 140.97 113.01 140.97 112 144 C111.34 144 110.68 144 110 144 C109.34 147.63 108.68 151.26 108 155 C106.68 155.33 105.36 155.66 104 156 C104 158.31 104 160.62 104 163 C102.35 163.33 100.7 163.66 99 164 C99.76366699 160.4389876 101.24086745 157.63585817 103.03491211 154.46728516 C116.60244769 130.40719494 120.04845429 101.83240462 112.64599609 75.15185547 C105.54421052 51.49534072 90.00649075 28.96496862 68 17 C67.39639648 16.67016113 66.79279297 16.34032227 66.17089844 16.00048828 C48.76962322 6.59755706 32.01068617 2.87004851 12.25 2.375 C10.96867187 2.33632812 9.68734375 2.29765625 8.3671875 2.2578125 C5.2449253 2.16461064 2.12265307 2.0788031 -1 2 C-0.67 1.34 -0.34 0.68 0 0 Z " fill="#C8F883" transform="translate(103,13)"/>
<path d="M0 0 C0.66 0 1.32 0 2 0 C2.40089844 0.87140625 2.80179688 1.7428125 3.21484375 2.640625 C7.84114873 12.33383543 13.01383282 21.11917438 20.7734375 28.71484375 C23 31 23 31 23 33 C23.66 33 24.32 33 25 33 C25 33.66 25 34.32 25 35 C25.58007812 35.26554687 26.16015625 35.53109375 26.7578125 35.8046875 C29.07532308 37.04015481 30.86302306 38.44182863 32.875 40.125 C42.58878296 47.76863249 53.32452013 53.04806795 65 57 C65.90878906 57.30808594 66.81757812 57.61617187 67.75390625 57.93359375 C93.05463413 66.00665043 121.05685293 60.81863175 144.27124023 49.17358398 C149.56668504 46.4037698 154.21437203 43.13720857 158.86328125 39.37109375 C159.56839844 38.91863281 160.27351562 38.46617187 161 38 C161.99 38.33 162.98 38.66 164 39 C161.22941499 41.97581353 158.51464884 43.97907692 155 46 C154.360625 46.495 153.72125 46.99 153.0625 47.5 C148.75764123 50.63080638 144.05500521 52.43535553 139 54 C139 54.66 139 55.32 139 56 C136.525 56.495 136.525 56.495 134 57 C134 57.66 134 58.32 134 59 C117.00571472 65.23123794 97.82930893 64.65029205 80 65 C80 64.34 80 63.68 80 63 C78.2984375 63.0309375 78.2984375 63.0309375 76.5625 63.0625 C73 63 73 63 72 62 C70.65252916 61.76924918 69.29622435 61.58846937 67.9375 61.4375 C66.638125 61.293125 65.33875 61.14875 64 61 C64 60.34 64 59.68 64 59 C61.143067 58.39398391 58.33958606 57.91889653 55.4375 57.5625 C52.46253643 57.07568778 50.54793814 56.52876288 48 55 C48 54.34 48 53.68 48 53 C46.68 53 45.36 53 44 53 C43.67 52.01 43.34 51.02 43 50 C40.49552484 48.78130071 40.49552484 48.78130071 38 48 C38 47.34 38 46.68 38 46 C34.11086145 43.98340964 30.15487415 42.38495805 26 41 C25.67 40.01 25.34 39.02 25 38 C23.515 37.505 23.515 37.505 22 37 C22 35.68 22 34.36 22 33 C21.34 33 20.68 33 20 33 C20 32.34 20 31.68 20 31 C19.34 31 18.68 31 18 31 C18 30.34 18 29.68 18 29 C17.34 29 16.68 29 16 29 C13.67980703 25.80973467 11.65356922 22.58273331 10 19 C9.34 19 8.68 19 8 19 C8 17.68 8 16.36 8 15 C7.34 15 6.68 15 6 15 C5.34 13.02 4.68 11.04 4 9 C3.34 9 2.68 9 2 9 C2 7.68 2 6.36 2 5 C1.34 5 0.68 5 0 5 C0 3.35 0 1.7 0 0 Z " fill="#C8F783" transform="translate(23,156)"/>
<path d="M0 0 C-0.33 0.66 -0.66 1.32 -1 2 C-3.24916933 2.68039601 -5.5265707 3.26823112 -7.8125 3.8125 C-32.04224247 9.93962738 -54.17307967 24.08252608 -67.32421875 45.73046875 C-70.05729229 50.3946028 -72.62043698 55.14569144 -75 60 C-75.66 60 -76.32 60 -77 60 C-77.33 58.68 -77.66 57.36 -78 56 C-77.01 55.34 -76.02 54.68 -75 54 C-74.27617533 51.94074861 -74.27617533 51.94074861 -74 50 C-73.34 50 -72.68 50 -72 50 C-71.896875 49.443125 -71.79375 48.88625 -71.6875 48.3125 C-70.85821592 45.5230899 -69.65700944 43.3860936 -68 41 C-67.34 41 -66.68 41 -66 41 C-65.7834375 39.824375 -65.7834375 39.824375 -65.5625 38.625 C-65 36 -65 36 -64 34 C-62.68 34 -61.36 34 -60 34 C-60 32.68 -60 31.36 -60 30 C-59.34 30 -58.68 30 -58 30 C-58 29.34 -58 28.68 -58 28 C-57.01 27.67 -56.02 27.34 -55 27 C-53.65057596 25.23601936 -52.53450596 23.39158238 -51.37890625 21.49609375 C-50.92386719 21.00238281 -50.46882813 20.50867188 -50 20 C-48.68 20 -47.36 20 -46 20 C-45.67 18.68 -45.34 17.36 -45 16 C-44.443125 15.896875 -43.88625 15.79375 -43.3125 15.6875 C-40.56458956 14.87055365 -38.44405332 13.47929543 -36 12 C-35.34 12 -34.68 12 -34 12 C-34 11.34 -34 10.68 -34 10 C-32.68 10 -31.36 10 -30 10 C-30 9.34 -30 8.68 -30 8 C-29.195625 7.71125 -28.39125 7.4225 -27.5625 7.125 C-24.8673532 6.26737432 -24.8673532 6.26737432 -24 4 C-22.02 4 -20.04 4 -18 4 C-18 3.34 -18 2.68 -18 2 C-16.12612523 1.6603981 -14.25083303 1.32861309 -12.375 1 C-11.33085938 0.814375 -10.28671875 0.62875 -9.2109375 0.4375 C-6.09425135 0.01284203 -3.14069188 -0.07545206 0 0 Z " fill="#C8F883" transform="translate(101,15)"/>
<path d="M0 0 C0.99 0.495 0.99 0.495 2 1 C2.00410889 1.64735107 2.00821777 2.29470215 2.01245117 2.96166992 C2.17350135 17.57343075 3.47684087 30.95889051 7.55688477 45.01489258 C8 47 8 47 8 51 C6.66666667 50.33333333 5.33333333 49.66666667 4 49 C4 46.36 4 43.72 4 41 C3.34 41 2.68 41 2 41 C2 38.36 2 35.72 2 33 C1.34 32.67 0.68 32.34 0 32 C0 21.44 0 10.88 0 0 Z " fill="#CCF788" transform="translate(15,104)"/>
<path d="M0 0 C0.66 0.99 1.32 1.98 2 3 C1.37222407 5.71542701 0.65732335 8.1926632 -0.25 10.8125 C-0.48074219 11.51181641 -0.71148438 12.21113281 -0.94921875 12.93164062 C-1.62051738 14.95881078 -2.3087804 16.97955091 -3 19 C-3.66733396 20.99977744 -4.33427547 22.9996862 -5 25 C-5.33 25 -5.66 25 -6 25 C-5.88553728 22.43663746 -5.75880499 19.87486555 -5.625 17.3125 C-5.5940625 16.59126953 -5.563125 15.87003906 -5.53125 15.12695312 C-5.30664413 11.02789606 -4.82259091 7.75631541 -3 4 C-2.34 4 -1.68 4 -1 4 C-0.67 2.68 -0.34 1.36 0 0 Z " fill="#C8F981" transform="translate(22,77)"/>
<path d="M0 0 C1.51400391 0.01740234 1.51400391 0.01740234 3.05859375 0.03515625 C4.07050781 0.04417969 5.08242187 0.05320313 6.125 0.0625 C7.29869141 0.07990234 7.29869141 0.07990234 8.49609375 0.09765625 C8.16609375 0.75765625 7.83609375 1.41765625 7.49609375 2.09765625 C0.48262038 3.24139191 -6.47554549 3.21831473 -13.56640625 3.16015625 C-14.62279297 3.15564453 -15.67917969 3.15113281 -16.76757812 3.14648438 C-19.34641533 3.13481543 -21.92512919 3.1184451 -24.50390625 3.09765625 C-24.50390625 2.76765625 -24.50390625 2.43765625 -24.50390625 2.09765625 C-23.87299072 2.0726001 -23.2420752 2.04754395 -22.59204102 2.02172852 C-19.749938 1.90611488 -16.90819542 1.78323309 -14.06640625 1.66015625 C-13.07318359 1.62083984 -12.07996094 1.58152344 -11.05664062 1.54101562 C-10.11240234 1.49912109 -9.16816406 1.45722656 -8.1953125 1.4140625 C-7.32076416 1.37740479 -6.44621582 1.34074707 -5.54516602 1.30297852 C-2.9106036 1.03797828 -2.80192017 0.10927926 0 0 Z " fill="#D3F98C" transform="translate(132.50390625,216.90234375)"/>
<path d="M0 0 C0.66 0 1.32 0 2 0 C1.34 1.65 0.68 3.3 0 5 C-0.66 5 -1.32 5 -2 5 C-2.28875 5.763125 -2.5775 6.52625 -2.875 7.3125 C-4 10 -4 10 -6 13 C-9.125 14.1875 -9.125 14.1875 -12 15 C-10.54189378 11.60534645 -8.66233272 9.47748287 -6 6.9375 C-3.62557202 4.66346144 -1.83652048 2.75478071 0 0 Z " fill="#CAF989" transform="translate(199,178)"/>
<path d="M0 0 C0.33 0 0.66 0 1 0 C1.33 5.28 1.66 10.56 2 16 C1.34 16 0.68 16 0 16 C-0.33 18.97 -0.66 21.94 -1 25 C-1.33 25 -1.66 25 -2 25 C-2.02688151 23.35425434 -2.04634123 21.70838587 -2.0625 20.0625 C-2.07410156 19.14597656 -2.08570313 18.22945312 -2.09765625 17.28515625 C-2 15 -2 15 -1 14 C-0.76472227 11.65012738 -0.58613583 9.29443961 -0.4375 6.9375 C-0.35371094 5.64714844 -0.26992187 4.35679688 -0.18359375 3.02734375 C-0.12300781 2.02832031 -0.06242188 1.02929688 0 0 Z " fill="#D1FA8A" transform="translate(221,113)"/>
<path d="M0 0 C2.75 -0.25 2.75 -0.25 6 0 C8.375 2 8.375 2 10 4 C7.69 4 5.38 4 3 4 C3 3.34 3 2.68 3 2 C2.01 1.34 1.02 0.68 0 0 Z " fill="#C7F77F" transform="translate(100,217)"/>
<path d="M0 0 C0.99 0.66 1.98 1.32 3 2 C3 2.99 3 3.98 3 5 C1.35 5.66 -0.3 6.32 -2 7 C-2 3.89448334 -1.4606285 2.64738916 0 0 Z " fill="#C3F97B" transform="translate(186,192)"/>
</svg>
